<?xml version="1.0" standalone="no"?>
<!DOCTYPE svg PUBLIC "-//W3C//DTD SVG 20010904//EN"
 "http://www.w3.org/TR/2001/REC-SVG-20010904/DTD/svg10.dtd">
<svg version="1.0" xmlns="http://www.w3.org/2000/svg"
 width="1015.000000pt" height="661.000000pt" viewBox="0 0 1015.000000 661.000000"
 preserveAspectRatio="xMidYMid meet">

<g transform="translate(0.000000,661.000000) scale(0.100000,-0.100000)"
fill="#000000" stroke="none">
<path d="M4792 6392 c-8 -5 -48 -10 -89 -11 -47 -1 -84 -8 -97 -17 -11 -8 -39
-14 -61 -14 -23 0 -50 -7 -61 -15 -10 -8 -31 -15 -46 -15 -15 0 -50 -9 -78
-20 -28 -11 -58 -20 -66 -20 -29 0 -178 -76 -273 -140 -160 -106 -232 -164
-331 -267 -111 -114 -163 -182 -183 -241 -25 -72 -25 -72 301 -72 165 0 292 4
307 10 15 6 46 26 68 45 105 88 143 114 186 130 25 10 73 32 107 50 34 18 83
36 110 39 27 4 63 11 79 16 17 5 89 17 162 26 108 14 141 15 185 6 29 -7 76
-15 103 -18 133 -15 202 -35 322 -94 143 -71 297 -188 363 -278 24 -31 53 -68
66 -82 37 -41 154 -261 154 -290 0 -10 7 -31 15 -46 8 -16 15 -37 15 -46 0 -9
4 -19 9 -22 9 -6 25 -90 34 -181 3 -22 10 -82 17 -134 8 -69 9 -120 1 -191
-11 -102 -37 -219 -52 -234 -5 -6 -9 -19 -9 -29 0 -31 -117 -261 -184 -361
-33 -50 -89 -119 -125 -154 -133 -130 -409 -281 -514 -282 -15 0 -44 -7 -65
-16 -54 -24 -439 -24 -494 0 -21 9 -50 16 -65 16 -38 0 -102 23 -203 73 -152
74 -298 183 -380 283 -30 37 -73 86 -95 110 l-40 42 -211 8 c-117 4 -223 4
-238 0 -22 -5 -26 -12 -26 -44 0 -26 9 -49 26 -73 14 -19 35 -54 46 -78 11
-24 52 -93 91 -155 38 -61 90 -149 114 -196 66 -128 199 -317 328 -466 38 -44
111 -129 160 -188 50 -59 125 -144 168 -189 44 -45 136 -143 205 -217 269
-285 326 -340 359 -340 32 0 64 31 325 321 17 19 67 72 112 119 45 47 92 99
105 115 12 17 51 59 84 95 128 136 258 282 289 325 4 6 31 37 59 70 28 33 62
76 75 95 13 19 44 60 68 90 87 107 159 213 206 305 27 51 64 116 84 145 38 55
83 146 136 275 19 44 37 84 42 89 4 6 8 17 8 25 0 9 6 27 13 41 23 45 45 113
69 215 21 90 23 122 22 310 -1 116 -7 230 -13 255 -5 25 -17 74 -25 110 -33
143 -39 165 -46 175 -4 6 -20 46 -35 90 -23 67 -129 275 -158 310 -4 6 -36 55
-70 110 -73 119 -230 282 -377 392 -101 76 -256 162 -330 182 -42 12 -100 31
-180 61 -19 7 -60 16 -92 20 -31 4 -62 12 -70 16 -26 17 -396 40 -416 26z"/>
<path d="M3210 5482 c-47 -13 -137 -72 -177 -115 -34 -37 -143 -190 -143 -202
0 -2 -13 -27 -30 -55 -16 -28 -30 -56 -30 -63 0 -7 -8 -22 -18 -35 -16 -21
-21 -22 -45 -11 -15 7 -27 16 -27 21 0 23 -77 40 -187 40 -99 1 -118 -2 -141
-19 -24 -18 -27 -28 -30 -88 -3 -59 0 -71 19 -91 12 -13 28 -24 35 -24 6 0 25
-7 40 -15 20 -10 52 -15 99 -14 39 1 70 -2 70 -7 0 -5 -13 -32 -28 -61 l-27
-52 0 -393 c1 -330 3 -396 15 -412 8 -11 15 -30 15 -42 0 -12 11 -29 25 -38
21 -14 59 -16 252 -16 210 0 231 2 261 20 40 25 52 54 52 130 0 41 5 64 18 80
l18 22 729 2 c402 1 737 -1 746 -5 12 -6 18 -28 22 -81 14 -168 19 -171 300
-164 117 2 223 9 237 14 70 27 77 67 85 479 6 321 5 357 -11 408 -13 40 -27
63 -49 78 -35 25 -54 47 -55 65 0 15 42 16 58 0 17 -17 123 -19 149 -2 12 8
31 14 42 14 11 0 33 12 50 26 27 23 31 32 31 78 0 44 -4 57 -26 77 -24 23 -33
24 -142 24 -110 0 -120 -2 -158 -26 -22 -15 -48 -37 -57 -50 l-17 -24 -22 27
c-13 15 -41 62 -63 105 -22 42 -49 88 -61 102 -11 14 -41 56 -67 93 -26 36
-71 88 -101 115 -99 87 -52 83 -891 88 -407 2 -751 1 -765 -3z m1575 -214 c20
-24 82 -119 138 -213 55 -93 104 -172 108 -175 5 -3 11 -25 15 -48 l7 -43
-849 6 c-467 3 -912 7 -989 9 -77 2 -175 4 -217 5 -72 1 -78 3 -78 22 0 20
136 258 186 326 13 17 24 35 24 39 0 5 21 30 47 56 l47 48 263 0 263 0 6 -38
c12 -78 42 -92 195 -92 171 0 239 31 225 101 -3 17 -1 29 7 33 7 2 137 5 289
5 l276 1 37 -42z m-1775 -717 c103 -10 191 -34 213 -59 9 -10 23 -35 32 -55
14 -34 14 -41 0 -70 -28 -60 -53 -67 -238 -67 -163 0 -166 0 -196 26 -30 25
-31 29 -31 104 0 70 3 82 27 110 24 29 30 31 67 26 23 -4 79 -10 126 -15z
m2106 3 c35 -17 48 -43 60 -127 7 -56 -8 -87 -57 -111 -25 -13 -66 -16 -197
-16 l-164 0 -29 31 c-23 24 -29 40 -29 74 0 38 5 47 37 74 21 17 53 33 73 37
54 8 130 24 185 39 69 17 82 17 121 -1z m-674 -122 c9 -9 9 -20 -1 -50 -27
-75 -52 -122 -70 -132 -13 -6 -160 -10 -405 -10 l-385 0 -26 37 c-14 21 -25
44 -25 53 0 8 -7 24 -15 34 -18 24 -20 73 -2 79 6 3 216 4 465 3 335 -2 455
-5 464 -14z"/>
<path d="M3583 2710 c-24 -10 -153 -175 -153 -197 0 -8 5 -23 10 -34 10 -17
22 -19 129 -19 l119 0 37 43 37 42 112 3 111 4 48 48 c55 56 62 90 22 108 -31
14 -438 16 -472 2z"/>
<path d="M5784 2685 c-4 -9 11 -37 35 -69 l41 -53 105 -5 104 -6 47 -41 48
-42 105 3 c103 3 106 4 109 27 3 15 -6 34 -25 55 -16 17 -45 51 -63 76 -54 73
-42 70 -282 70 -186 0 -219 -2 -224 -15z"/>
<path d="M3152 2133 c-19 -9 -46 -32 -60 -51 -15 -20 -46 -56 -69 -81 -24 -25
-43 -49 -43 -53 0 -4 -22 -31 -48 -61 -26 -30 -54 -67 -61 -81 -13 -23 -12
-28 4 -46 19 -21 27 -21 333 -18 298 3 314 4 324 22 6 11 27 38 47 60 75 85
93 122 73 153 -5 8 -50 13 -135 14 -154 3 -168 10 -137 62 25 43 20 74 -17 88
-41 15 -174 11 -211 -8z"/>
<path d="M6453 2129 c-27 -10 -31 -50 -7 -69 27 -23 38 -51 23 -61 -8 -5 -69
-9 -136 -9 -97 0 -125 -3 -137 -16 -21 -20 -21 -23 12 -71 83 -124 98 -143
126 -153 39 -14 581 -13 607 0 10 6 19 18 19 28 0 21 -78 119 -195 246 l-90
97 -70 5 c-39 2 -83 6 -100 8 -16 2 -40 0 -52 -5z"/>
<path d="M2468 1359 l-28 -11 0 -463 c0 -539 -14 -485 127 -485 127 0 133 6
133 123 0 111 10 134 43 96 27 -32 132 -166 151 -194 13 -18 26 -20 150 -20
83 0 139 4 146 11 11 11 -14 47 -113 163 -27 31 -61 72 -75 93 -15 20 -38 44
-52 53 -14 9 -33 28 -44 42 -36 48 -26 67 91 187 61 61 113 119 116 129 4 11
-1 25 -13 37 -17 17 -34 20 -117 20 -54 0 -107 -3 -118 -6 -11 -3 -45 -37 -75
-75 -30 -37 -62 -67 -70 -66 -13 2 -15 30 -18 168 -3 204 -2 202 -125 206 -45
1 -94 -3 -109 -8z"/>
<path d="M3250 1363 c-8 -4 -18 -11 -22 -17 -12 -17 -9 -139 3 -174 8 -23 7
-37 -4 -59 -11 -22 -15 -94 -16 -352 -2 -387 -11 -361 128 -361 142 0 131 -29
131 360 0 290 -2 334 -17 365 -11 24 -14 39 -7 43 19 13 24 44 18 107 -5 51
-11 65 -28 73 -24 12 -164 23 -186 15z"/>
<path d="M7830 1358 l-25 -14 -3 -453 c-2 -412 -1 -456 14 -473 14 -15 32 -18
109 -18 57 0 95 4 103 12 7 7 12 45 12 99 0 48 3 94 6 103 12 30 43 16 85 -37
22 -28 68 -80 100 -114 l60 -63 107 0 c151 0 166 20 84 112 -26 29 -61 71 -77
93 -16 22 -31 42 -35 45 -3 3 -18 23 -35 45 -16 22 -44 56 -62 75 -18 19 -33
41 -33 47 0 7 23 39 51 70 28 32 80 90 114 129 47 53 62 77 58 92 -7 27 -29
32 -141 32 l-92 0 -81 -76 c-45 -41 -86 -73 -92 -71 -8 2 -13 56 -15 174 -2
120 -6 174 -15 181 -21 18 -169 25 -197 10z"/>
<path d="M240 1133 c-39 -17 -39 -25 -40 -490 0 -531 -8 -493 109 -493 53 0
130 14 131 23 0 1 3 54 6 117 4 63 8 117 10 119 2 2 39 -3 81 -11 93 -18 138
-9 238 47 96 53 151 134 174 257 11 57 11 76 -4 143 -25 113 -76 185 -170 242
-77 46 -85 47 -305 41 -25 0 -83 2 -130 5 -47 4 -92 4 -100 0z m396 -248 c56
-33 64 -49 64 -127 0 -77 -14 -100 -75 -123 -116 -45 -211 53 -176 182 12 43
27 60 70 80 41 18 71 15 117 -12z"/>
<path d="M1238 1123 c-105 -40 -180 -124 -217 -243 -18 -59 -25 -167 -13 -194
6 -12 13 -35 16 -53 9 -54 99 -173 151 -201 43 -23 185 -51 210 -42 56 21 116
29 140 20 15 -6 66 -10 115 -10 132 0 125 -22 124 378 -1 288 -3 325 -18 340
-22 22 -189 24 -228 3 -20 -10 -30 -11 -48 -1 -40 21 -178 23 -232 3z m202
-228 c52 -27 70 -61 70 -134 0 -57 -3 -70 -26 -94 -68 -74 -173 -58 -221 33
-26 50 -29 80 -9 118 40 76 122 110 186 77z"/>
<path d="M1873 1125 l-23 -16 0 -339 c0 -302 2 -340 17 -355 13 -14 33 -16
110 -13 126 4 123 -1 123 195 0 84 4 153 9 153 5 0 12 11 15 24 3 13 29 45 57
70 45 40 57 46 98 47 54 1 80 5 89 14 12 12 7 204 -5 216 -7 7 -34 14 -61 17
-55 5 -108 -14 -156 -57 -27 -25 -29 -25 -40 -7 -33 55 -39 58 -126 63 -68 4
-89 1 -107 -12z"/>
<path d="M3936 1132 c-15 -2 -48 -14 -71 -28 -46 -25 -69 -23 -86 7 -8 17 -22
19 -104 19 -86 0 -95 -2 -109 -22 -14 -19 -16 -69 -16 -348 0 -187 4 -331 10
-340 11 -18 186 -27 210 -11 12 8 16 46 20 198 5 185 6 189 33 231 28 43 75
72 118 72 11 0 34 -14 50 -31 l29 -31 0 -214 c0 -250 -9 -234 124 -234 75 0
89 3 107 21 21 21 22 26 16 258 -6 251 -10 276 -59 348 -52 77 -158 118 -272
105z"/>
<path d="M4571 1124 c-59 -21 -148 -89 -177 -136 -89 -140 -77 -364 26 -480
66 -76 231 -144 286 -119 29 13 84 15 84 2 0 -25 -33 -32 -138 -30 -61 1 -115
-1 -120 -5 -5 -3 -13 -37 -17 -75 -12 -118 13 -137 180 -140 82 -1 121 2 150
14 156 63 203 106 230 210 12 44 15 131 15 394 0 405 11 375 -134 376 -61 0
-98 -4 -108 -13 -12 -9 -22 -10 -44 -2 -52 20 -184 22 -233 4z m206 -241 c42
-27 74 -84 73 -128 -2 -61 -74 -135 -132 -135 -33 0 -82 23 -115 53 -19 17
-23 31 -23 83 0 76 21 118 70 138 51 22 81 19 127 -11z"/>
<path d="M5588 1133 c-9 -2 -19 -12 -23 -21 -8 -20 -7 -930 1 -943 8 -14 198
-11 212 3 8 8 12 49 12 119 0 123 6 134 63 119 20 -6 53 -14 72 -19 21 -5 47
-6 63 0 15 5 43 11 62 14 80 12 193 115 225 206 18 51 20 250 3 300 -28 82
-97 159 -178 197 -46 22 -70 26 -141 27 -55 0 -95 -5 -112 -14 -23 -12 -33
-12 -78 2 -47 16 -141 21 -181 10z m409 -248 c86 -57 83 -204 -6 -250 -66 -34
-154 -8 -187 56 -23 46 -14 142 17 175 42 45 123 53 176 19z"/>
<path d="M6600 1124 c-90 -32 -199 -140 -215 -211 -3 -18 -11 -35 -16 -38 -5
-4 -9 -51 -9 -105 0 -91 3 -105 33 -172 19 -40 48 -88 66 -105 37 -38 144 -93
181 -94 14 0 34 -4 44 -8 21 -8 117 11 153 30 17 9 26 8 44 -5 31 -21 186 -23
215 -2 18 14 19 31 22 335 2 275 1 325 -13 351 l-16 30 -94 0 c-58 0 -103 -5
-115 -12 -16 -10 -26 -10 -52 0 -54 22 -176 25 -228 6z m184 -228 c37 -15 81
-67 91 -107 8 -30 -26 -118 -55 -144 -10 -9 -43 -19 -74 -22 -53 -6 -57 -4
-91 30 -34 34 -35 38 -35 106 0 85 18 128 58 137 15 3 32 7 37 9 20 7 36 5 69
-9z"/>
<path d="M7554 1121 c-23 -10 -45 -24 -48 -30 -12 -19 -43 -12 -60 14 -16 24
-21 25 -120 25 l-104 0 -16 -34 c-23 -49 -24 -640 0 -671 13 -17 29 -21 110
-23 144 -6 144 -6 144 164 0 140 15 217 49 258 33 38 86 63 145 68 82 7 96 25
96 128 0 73 -2 80 -26 99 -34 27 -113 28 -170 2z"/>
<path d="M8835 1122 c-143 -49 -265 -213 -265 -356 0 -80 44 -188 104 -255 39
-44 137 -100 185 -106 25 -4 60 -10 77 -15 29 -7 99 1 174 21 19 5 56 23 83
39 39 25 47 35 47 60 0 21 -14 45 -47 84 -51 58 -81 68 -117 41 -28 -21 -154
-20 -184 1 -12 8 -22 22 -22 30 0 12 32 14 198 14 108 0 204 5 212 10 11 7 16
33 19 95 3 76 0 91 -23 140 -39 78 -107 149 -173 181 -75 35 -194 42 -268 16z
m169 -222 c14 -5 26 -16 26 -25 0 -12 -14 -15 -75 -15 -41 0 -75 4 -75 9 0 35
69 52 124 31z"/>
<path d="M9413 1130 c-49 -20 -53 -46 -53 -370 0 -289 1 -303 21 -331 20 -28
22 -29 115 -29 135 0 134 -1 134 189 0 82 4 161 9 174 13 34 68 95 100 111 14
8 55 16 90 19 38 2 67 10 72 18 12 19 11 176 -1 199 -13 24 -94 35 -148 20
-23 -6 -54 -22 -70 -35 -38 -32 -43 -31 -63 4 -12 20 -27 30 -55 34 -53 9
-125 8 -151 -3z"/>
</g>
</svg>
